<svg xmlns="http://www.w3.org/2000/svg" width="800" height="500" viewBox="0 0 800 500">
  <rect width="800" height="500" fill="#F5F0E8"/>
  <rect x="0" y="400" width="800" height="100" fill="#E8E0D0"/>
  <rect x="120" y="200" width="350" height="180" rx="12" fill="#DDD5C5"/>
  <rect x="140" y="210" width="140" height="100" rx="8" fill="#D0C8B8"/>
  <rect x="300" y="210" width="140" height="100" rx="8" fill="#D0C8B8"/>
  <rect x="130" y="330" width="40" height="50" rx="4" fill="#C8BFA8"/>
  <rect x="400" y="330" width="40" height="50" rx="4" fill="#C8BFA8"/>
  <rect x="560" y="150" width="120" height="230" rx="8" fill="#E0D8C8"/>
  <rect x="570" y="160" width="100" height="80" rx="4" fill="#D5CDB8"/>
  <rect x="570" y="250" width="45" height="60" rx="4" fill="#D5CDB8"/>
  <rect x="625" y="250" width="45" height="60" rx="4" fill="#D5CDB8"/>
  <rect x="50" y="360" width="50" height="40" rx="20" fill="#D8D0C0"/>
  <rect x="680" y="360" width="50" height="40" rx="20" fill="#D8D0C0"/>
</svg>
